<svg width="24" height="24" viewBox="0 0 24 24" fill="none" xmlns="http://www.w3.org/2000/svg">
<path d="M3.44444 24H20.5556C21.9037 24 23 22.9236 23 21.6V8.4C23 8.08174 22.8712 7.77652 22.642 7.55147C22.4128 7.32643 22.1019 7.2 21.7778 7.2H18.1111V6C18.1111 2.6916 15.3697 0 12 0C8.63033 0 5.88889 2.6916 5.88889 6V7.2H2.22222C1.89807 7.2 1.58719 7.32643 1.35798 7.55147C1.12877 7.77652 1 8.08174 1 8.4V21.6C1 22.9236 2.09633 24 3.44444 24ZM8.33333 6C8.33333 4.0152 9.97844 2.4 12 2.4C14.0216 2.4 15.6667 4.0152 15.6667 6V7.2H8.33333V6ZM3.44444 9.6H5.88889V12H8.33333V9.6H15.6667V12H18.1111V9.6H20.5556L20.558 21.6H3.44444V9.6Z" fill="white"/>
</svg>
