<svg width="16" height="16" viewBox="0 0 16 16" fill="none" xmlns="http://www.w3.org/2000/svg">
<path d="M9.76255 7.99999L15.1375 2.63749C15.3729 2.40211 15.5052 2.08286 15.5052 1.74999C15.5052 1.41711 15.3729 1.09787 15.1375 0.862488C14.9022 0.627108 14.5829 0.494873 14.25 0.494873C13.9172 0.494873 13.5979 0.627108 13.3625 0.862488L8.00005 6.23749L2.63755 0.862488C2.40217 0.627108 2.08292 0.494873 1.75005 0.494873C1.41717 0.494873 1.09793 0.627108 0.862546 0.862488C0.627166 1.09787 0.494931 1.41711 0.494931 1.74999C0.494931 2.08286 0.627166 2.40211 0.862546 2.63749L6.23755 7.99999L0.862546 13.3625C0.745385 13.4787 0.652393 13.6169 0.588932 13.7693C0.525471 13.9216 0.492798 14.085 0.492798 14.25C0.492798 14.415 0.525471 14.5784 0.588932 14.7307C0.652393 14.883 0.745385 15.0213 0.862546 15.1375C0.978749 15.2546 1.117 15.3476 1.26932 15.4111C1.42165 15.4746 1.58503 15.5072 1.75005 15.5072C1.91506 15.5072 2.07844 15.4746 2.23077 15.4111C2.38309 15.3476 2.52134 15.2546 2.63755 15.1375L8.00005 9.76249L13.3625 15.1375C13.4788 15.2546 13.617 15.3476 13.7693 15.4111C13.9216 15.4746 14.085 15.5072 14.25 15.5072C14.4151 15.5072 14.5784 15.4746 14.7308 15.4111C14.8831 15.3476 15.0213 15.2546 15.1375 15.1375C15.2547 15.0213 15.3477 14.883 15.4112 14.7307C15.4746 14.5784 15.5073 14.415 15.5073 14.25C15.5073 14.085 15.4746 13.9216 15.4112 13.7693C15.3477 13.6169 15.2547 13.4787 15.1375 13.3625L9.76255 7.99999Z" fill="white"/>
</svg>
