<svg width="18" height="18" viewBox="0 0 18 18" fill="none" xmlns="http://www.w3.org/2000/svg">
<path d="M14.55 5.50489L12.495 3.44989C12.2268 3.19797 11.8753 3.05341 11.5075 3.04373C11.1396 3.03405 10.7811 3.15992 10.5 3.39739L3.74999 10.1474C3.50757 10.3919 3.35662 10.7123 3.32249 11.0549L2.99999 14.1824C2.98989 14.2922 3.00414 14.403 3.04174 14.5067C3.07933 14.6104 3.13935 14.7045 3.21749 14.7824C3.28757 14.8519 3.37069 14.9069 3.46206 14.9442C3.55344 14.9815 3.65129 15.0005 3.74999 14.9999H3.81749L6.94499 14.7149C7.28759 14.6808 7.60802 14.5298 7.85249 14.2874L14.6025 7.53739C14.8645 7.26062 15.0061 6.89127 14.9962 6.51029C14.9864 6.12932 14.8259 5.76777 14.55 5.50489ZM12 8.00989L9.98999 5.99989L11.4525 4.49989L13.5 6.54739L12 8.00989Z" fill="#303E3D"/>
</svg>
