<svg width="18" height="18" viewBox="0 0 18 18" fill="none" xmlns="http://www.w3.org/2000/svg">
<path d="M9 17C4.5816 17 1 13.4184 1 9C1 4.5816 4.5816 1 9 1C13.4184 1 17 4.5816 17 9C17 13.4184 13.4184 17 9 17ZM5 8.2C4.78783 8.2 4.58434 8.28429 4.43431 8.43431C4.28429 8.58434 4.2 8.78783 4.2 9C4.2 9.21217 4.28429 9.41566 4.43431 9.56569C4.58434 9.71571 4.78783 9.8 5 9.8H13C13.2122 9.8 13.4157 9.71571 13.5657 9.56569C13.7157 9.41566 13.8 9.21217 13.8 9C13.8 8.78783 13.7157 8.58434 13.5657 8.43431C13.4157 8.28429 13.2122 8.2 13 8.2H5Z" fill="#303E3D"/>
</svg>
