<svg width="18" height="18" viewBox="0 0 18 18" fill="none" xmlns="http://www.w3.org/2000/svg">
<path d="M17 9C17 10.5823 16.5308 12.129 15.6518 13.4446C14.7727 14.7602 13.5233 15.7855 12.0615 16.391C10.5997 16.9965 8.99113 17.155 7.43928 16.8463C5.88743 16.5376 4.46197 15.7757 3.34315 14.6569C2.22433 13.538 1.4624 12.1126 1.15372 10.5607C0.84504 9.00887 1.00347 7.40034 1.60897 5.93853C2.21447 4.47672 3.23985 3.22729 4.55544 2.34824C5.87103 1.46919 7.41775 1 9 1C11.1217 1 13.1566 1.84285 14.6569 3.34315C16.1571 4.84344 17 6.87827 17 9ZM12.795 8.25H9.75V5.205C9.75 5.00609 9.67099 4.81532 9.53033 4.67467C9.38968 4.53402 9.19892 4.455 9 4.455C8.80109 4.455 8.61033 4.53402 8.46967 4.67467C8.32902 4.81532 8.25 5.00609 8.25 5.205V8.25H5.205C5.00609 8.25 4.81533 8.32902 4.67467 8.46967C4.53402 8.61032 4.455 8.80109 4.455 9C4.455 9.19891 4.53402 9.38968 4.67467 9.53033C4.81533 9.67098 5.00609 9.75 5.205 9.75H8.25V12.795C8.25 12.9939 8.32902 13.1847 8.46967 13.3253C8.61033 13.466 8.80109 13.545 9 13.545C9.19892 13.545 9.38968 13.466 9.53033 13.3253C9.67099 13.1847 9.75 12.9939 9.75 12.795V9.75H12.795C12.9939 9.75 13.1847 9.67098 13.3253 9.53033C13.466 9.38968 13.545 9.19891 13.545 9C13.545 8.80109 13.466 8.61032 13.3253 8.46967C13.1847 8.32902 12.9939 8.25 12.795 8.25Z" fill="#303E3D"/>
</svg>
