<svg width="207" height="56" viewBox="0 0 207 56" fill="none" xmlns="http://www.w3.org/2000/svg">
<path d="M0.75 34.795C0.75 33.2184 1.15333 31.88 1.96 30.78C2.80333 29.68 3.94 28.8367 5.37 28.25C5.55333 28.1767 5.68167 28.2317 5.755 28.415C5.82833 28.5984 5.81 28.7634 5.7 28.91C5.04 29.2767 4.50833 29.845 4.105 30.615C3.73833 31.385 3.555 32.32 3.555 33.42C3.555 35.6567 4.38 37.4167 6.03 38.7C7.68 39.9834 9.825 40.625 12.465 40.625C15.9117 40.625 18.3683 39.9467 19.835 38.59C21.3383 37.2334 22.09 35.455 22.09 33.255C22.09 31.2017 21.6683 29.405 20.825 27.865C19.9817 26.2884 19.0467 24.8217 18.02 23.465C17.03 22.0717 16.1133 20.6784 15.27 19.285C14.4267 17.8917 14.005 16.315 14.005 14.555C14.005 13.5284 14.225 12.5384 14.665 11.585C15.1417 10.6317 15.7833 9.78838 16.59 9.05504C17.4333 8.28505 18.4233 7.68005 19.56 7.24004C20.6967 6.80004 21.9433 6.58004 23.3 6.58004C25.17 6.58004 26.6367 6.98338 27.7 7.79004C28.8 8.56005 29.35 9.49504 29.35 10.595C29.35 11.2184 29.075 11.9884 28.525 12.905C28.0117 13.785 27.48 14.555 26.93 15.215C26.7833 15.2884 26.655 15.27 26.545 15.16C26.435 15.05 26.3983 14.9217 26.435 14.775C26.6183 14.4817 26.765 14.1334 26.875 13.73C27.0217 13.29 27.095 12.8134 27.095 12.3C27.095 11.7134 26.9667 11.1634 26.71 10.65C26.4533 10.1 26.0867 9.64171 25.61 9.27504C25.1333 8.87171 24.5833 8.56005 23.96 8.34004C23.3367 8.08338 22.6767 7.95505 21.98 7.95505C20.1467 7.95505 18.8083 8.39504 17.965 9.27504C17.1217 10.155 16.7 11.2917 16.7 12.685C16.7 13.785 16.9017 14.83 17.305 15.82C17.745 16.7734 18.2767 17.745 18.9 18.735C19.5233 19.6884 20.1833 20.66 20.88 21.65C21.6133 22.6034 22.2917 23.6117 22.915 24.675C23.5383 25.7017 24.0517 26.8017 24.455 27.975C24.895 29.1117 25.115 30.3584 25.115 31.715C25.115 33.145 24.7483 34.4834 24.015 35.73C23.3183 36.9767 22.3467 38.0767 21.1 39.03C19.8533 39.9467 18.405 40.68 16.755 41.23C15.105 41.7434 13.3267 42 11.42 42C7.93667 42 5.27833 41.3217 3.445 39.965C1.64833 38.6084 0.75 36.885 0.75 34.795Z" fill="white"/>
<path d="M46.2732 27.92C46.8966 27.92 47.4282 28.2684 47.8682 28.965C48.3082 29.625 48.5282 30.4867 48.5282 31.55C48.5282 32.98 48.1982 34.3367 47.5382 35.62C46.9149 36.8667 46.1266 37.9667 45.1732 38.92C44.2199 39.8734 43.1932 40.625 42.0932 41.175C40.9932 41.725 39.9849 42 39.0682 42C38.1882 42 37.5282 41.725 37.0882 41.175C36.6849 40.625 36.4832 39.8734 36.4832 38.92C36.4832 38.04 36.5566 37.0317 36.7032 35.895C36.8499 34.7584 37.0149 33.8234 37.1982 33.09C36.4649 34.0434 35.6949 35.18 34.8882 36.5C34.0816 37.82 33.2749 39.1767 32.4682 40.57C32.2482 40.9734 31.8999 41.3217 31.4232 41.615C30.9466 41.8717 30.4882 42 30.0482 42C29.7549 42 29.6449 41.7984 29.7182 41.395C29.9749 40.515 30.1766 39.4334 30.3232 38.15C30.5066 36.83 30.5982 35.5467 30.5982 34.3C30.5982 33.0534 30.5066 31.9717 30.3232 31.055C30.1766 30.1384 29.8832 29.5884 29.4432 29.405C29.1866 29.3317 28.8932 29.405 28.5632 29.625C28.2332 29.845 27.9766 30.1567 27.7932 30.56C27.7199 30.6334 27.6282 30.6334 27.5182 30.56C27.4082 30.45 27.3716 30.3217 27.4082 30.175C27.5916 29.735 28.0132 29.2584 28.6732 28.745C29.3699 28.195 30.1032 27.92 30.8732 27.92C31.7532 27.92 32.3766 28.3784 32.7432 29.295C33.1466 30.2117 33.3482 31.715 33.3482 33.805C33.3482 34.7584 33.3116 35.6384 33.2382 36.445C33.1649 37.215 33.0732 37.8934 32.9632 38.48C33.6966 37.1967 34.3932 36.0967 35.0532 35.18C35.7132 34.2634 36.3366 33.42 36.9232 32.65C37.1432 32.3567 37.3266 32.0267 37.4732 31.66C37.6566 31.2567 37.8399 30.7067 38.0232 30.01C38.0599 29.79 38.2249 29.5884 38.5182 29.405C38.8482 29.185 39.1782 29.02 39.5082 28.91C39.8749 28.8 40.1866 28.745 40.4432 28.745C40.6999 28.7084 40.8282 28.7817 40.8282 28.965C40.2416 30.175 39.8016 31.5867 39.5082 33.2C39.2149 34.7767 39.0682 36.2434 39.0682 37.6C39.0682 38.5167 39.2882 39.195 39.7282 39.635C40.1682 40.0384 40.6999 40.24 41.3232 40.24C41.9832 40.24 42.6066 40.0384 43.1932 39.635C43.8166 39.2317 44.3666 38.7 44.8432 38.04C45.3199 37.38 45.7049 36.61 45.9982 35.73C46.2916 34.8134 46.4382 33.86 46.4382 32.87C46.4382 31.44 46.1632 30.5234 45.6132 30.12C45.0632 29.7167 44.4766 29.7717 43.8532 30.285C43.7066 30.3217 43.5966 30.3034 43.5232 30.23C43.4499 30.12 43.4316 30.01 43.4682 29.9C43.5782 29.7167 43.7616 29.515 44.0182 29.295C44.2749 29.0384 44.5316 28.8184 44.7882 28.635C45.0816 28.415 45.3566 28.25 45.6132 28.14C45.9066 27.9934 46.1266 27.92 46.2732 27.92Z" fill="white"/>
<path d="M62.2752 30.67C62.2752 32.76 59.5069 34.19 53.9702 34.96C53.9336 35.3267 53.8969 35.6934 53.8602 36.06C53.8602 36.4267 53.8602 36.8117 53.8602 37.215C53.8602 38.1684 54.0802 38.9017 54.5202 39.415C54.9602 39.9284 55.6569 40.185 56.6102 40.185C57.3069 40.185 58.0219 39.9834 58.7552 39.58C59.4886 39.1767 60.0752 38.6634 60.5152 38.04C60.6619 37.9667 60.7719 38.0034 60.8452 38.15C60.9186 38.26 60.9369 38.3884 60.9002 38.535C60.1669 39.4884 59.2319 40.3134 58.0952 41.01C56.9952 41.67 55.8036 42 54.5202 42C53.2369 42 52.3019 41.6884 51.7152 41.065C51.1652 40.405 50.8902 39.4884 50.8902 38.315C50.8902 37.1784 51.1286 36.005 51.6052 34.795C52.0819 33.5484 52.6869 32.4117 53.4202 31.385C54.1902 30.3584 55.0519 29.5334 56.0052 28.91C56.9952 28.25 57.9852 27.92 58.9752 27.92C59.9652 27.92 60.7536 28.2134 61.3402 28.8C61.9636 29.35 62.2752 29.9734 62.2752 30.67ZM57.4902 29.35C56.6469 29.35 55.9136 29.7534 55.2902 30.56C54.7036 31.33 54.3002 32.54 54.0802 34.19C55.8402 34.0067 57.1419 33.6767 57.9852 33.2C58.8286 32.6867 59.2502 32.0634 59.2502 31.33C59.2502 30.78 59.0852 30.3217 58.7552 29.955C58.4252 29.5517 58.0036 29.35 57.4902 29.35Z" fill="white"/>
<path d="M75.327 30.67C75.327 32.76 72.5587 34.19 67.022 34.96C66.9853 35.3267 66.9487 35.6934 66.912 36.06C66.912 36.4267 66.912 36.8117 66.912 37.215C66.912 38.1684 67.132 38.9017 67.572 39.415C68.012 39.9284 68.7087 40.185 69.662 40.185C70.3587 40.185 71.0737 39.9834 71.807 39.58C72.5403 39.1767 73.127 38.6634 73.567 38.04C73.7137 37.9667 73.8237 38.0034 73.897 38.15C73.9703 38.26 73.9887 38.3884 73.952 38.535C73.2187 39.4884 72.2837 40.3134 71.147 41.01C70.047 41.67 68.8553 42 67.572 42C66.2887 42 65.3537 41.6884 64.767 41.065C64.217 40.405 63.942 39.4884 63.942 38.315C63.942 37.1784 64.1803 36.005 64.657 34.795C65.1337 33.5484 65.7387 32.4117 66.472 31.385C67.242 30.3584 68.1037 29.5334 69.057 28.91C70.047 28.25 71.037 27.92 72.027 27.92C73.017 27.92 73.8053 28.2134 74.392 28.8C75.0153 29.35 75.327 29.9734 75.327 30.67ZM70.542 29.35C69.6987 29.35 68.9653 29.7534 68.342 30.56C67.7553 31.33 67.352 32.54 67.132 34.19C68.892 34.0067 70.1937 33.6767 71.037 33.2C71.8803 32.6867 72.302 32.0634 72.302 31.33C72.302 30.78 72.137 30.3217 71.807 29.955C71.477 29.5517 71.0553 29.35 70.542 29.35Z" fill="white"/>
<path d="M87.5537 28.195C87.7371 28.2684 87.8104 28.3784 87.7738 28.525C87.7371 28.635 87.5721 28.7267 87.2787 28.8C86.7287 28.8 86.0871 28.8184 85.3538 28.855C84.6571 28.8917 83.9054 28.9467 83.0987 29.02C82.3654 30.8167 81.7604 32.5767 81.2838 34.3C80.8071 35.9867 80.5687 37.3617 80.5687 38.425C80.5687 39.6717 81.0454 40.295 81.9987 40.295C82.9521 40.295 84.0154 39.47 85.1888 37.82C85.2988 37.7467 85.3904 37.7467 85.4638 37.82C85.5738 37.8934 85.6104 38.0217 85.5738 38.205C84.9504 39.2317 84.1621 40.13 83.2087 40.9C82.2554 41.6334 81.3204 42 80.4037 42C79.4504 42 78.7354 41.78 78.2588 41.34C77.8187 40.8634 77.5987 40.2217 77.5987 39.415C77.5987 38.3517 77.8554 36.885 78.3688 35.015C78.8821 33.145 79.5421 31.2384 80.3487 29.295C79.3954 29.405 78.5154 29.5517 77.7087 29.735C77.5254 29.6984 77.4704 29.6067 77.5437 29.46C77.6537 29.3134 77.8187 29.1667 78.0387 29.02C78.2954 28.8367 78.5887 28.69 78.9187 28.58C79.2487 28.4334 79.5604 28.36 79.8538 28.36C80.0004 28.36 80.1471 28.36 80.2937 28.36C80.4404 28.36 80.5871 28.3417 80.7337 28.305C81.2104 27.2417 81.7054 26.215 82.2188 25.225C82.7321 24.235 83.2454 23.3367 83.7588 22.53C83.9788 22.2734 84.2721 22.0534 84.6387 21.87C85.0421 21.65 85.4271 21.485 85.7937 21.375C86.1604 21.265 86.4538 21.21 86.6738 21.21C86.9304 21.1734 87.0404 21.2284 87.0038 21.375C86.3804 22.3284 85.7571 23.3917 85.1338 24.565C84.5471 25.7384 83.9788 26.9667 83.4287 28.25C84.1254 28.2134 84.8221 28.195 85.5188 28.195C86.2521 28.195 86.9304 28.195 87.5537 28.195Z" fill="white"/>
<path d="M122.804 21.98C123.904 22.31 124.876 22.805 125.719 23.465C126.599 24.125 127.332 24.895 127.919 25.775C128.542 26.6184 129.019 27.5167 129.349 28.47C129.679 29.3867 129.844 30.285 129.844 31.165C129.844 32.7417 129.532 34.19 128.909 35.51C128.322 36.83 127.406 37.985 126.159 38.975C124.949 39.9284 123.391 40.68 121.484 41.23C119.577 41.7434 117.322 42 114.719 42C110.576 42 106.964 41.45 103.884 40.35C100.841 39.2134 98.054 37.6 95.524 35.51C95.414 35.3267 95.4324 35.125 95.579 34.905C95.7624 34.6484 96.019 34.4284 96.349 34.245C96.679 34.0617 97.0274 33.9334 97.394 33.86C97.7974 33.7867 98.164 33.8234 98.494 33.97C99.1907 34.6667 99.8874 35.125 100.584 35.345C101.281 35.5284 102.142 35.5284 103.169 35.345C104.122 35.1617 104.911 34.8134 105.534 34.3C106.194 33.75 106.781 32.9067 107.294 31.77C107.844 30.6334 108.394 29.1484 108.944 27.315C109.531 25.4817 110.209 23.1717 110.979 20.385C111.749 17.635 112.702 15.2517 113.839 13.235C115.012 11.2184 116.424 9.51338 118.074 8.12004C117.854 8.12004 117.616 8.12004 117.359 8.12004C117.139 8.08338 116.882 8.06504 116.589 8.06504C115.379 8.06504 114.187 8.23004 113.014 8.56004C111.841 8.89004 110.722 9.38505 109.659 10.045C108.632 10.705 107.697 11.5117 106.854 12.465C106.011 13.3817 105.332 14.445 104.819 15.655C104.709 15.7284 104.599 15.7467 104.489 15.71C104.416 15.6367 104.397 15.5084 104.434 15.325C104.874 14.1884 105.534 13.0884 106.414 12.025C107.294 10.9617 108.357 10.0267 109.604 9.22005C110.851 8.41338 112.262 7.77171 113.839 7.29504C115.416 6.81838 117.084 6.58004 118.844 6.58004C119.101 6.58004 119.339 6.58004 119.559 6.58004C119.779 6.58004 119.999 6.59838 120.219 6.63505C120.989 6.19504 121.796 5.81004 122.639 5.48004C123.482 5.11338 124.381 4.82004 125.334 4.60005C125.517 4.60005 125.609 4.67338 125.609 4.82004C125.609 4.93004 125.517 5.02171 125.334 5.09505C124.014 5.42504 122.804 5.97504 121.704 6.74504C124.931 7.14838 127.332 8.06504 128.909 9.49504C130.522 10.925 131.329 12.5934 131.329 14.5C131.329 15.6 131.109 16.6084 130.669 17.525C130.229 18.4417 129.624 19.23 128.854 19.89C128.121 20.55 127.222 21.0634 126.159 21.43C125.132 21.7967 124.014 21.98 122.804 21.98ZM115.929 41.175C117.579 41.175 119.046 40.955 120.329 40.515C121.649 40.0384 122.749 39.415 123.629 38.645C124.509 37.8384 125.169 36.9034 125.609 35.84C126.086 34.7767 126.324 33.6217 126.324 32.375C126.324 27.6084 123.391 24.4367 117.524 22.86C117.414 22.75 117.451 22.585 117.634 22.365C117.854 22.1084 118.129 21.87 118.459 21.65C118.789 21.3934 119.137 21.1917 119.504 21.045C119.871 20.8984 120.164 20.8434 120.384 20.88C120.751 21.0267 121.062 21.1367 121.319 21.21C121.612 21.2834 121.979 21.32 122.419 21.32C123.079 21.32 123.721 21.1734 124.344 20.88C125.004 20.5867 125.572 20.2017 126.049 19.725C126.562 19.2117 126.966 18.6067 127.259 17.91C127.589 17.2134 127.754 16.4617 127.754 15.655C127.754 13.895 127.094 12.3367 125.774 10.98C124.454 9.62338 122.474 8.74338 119.834 8.34004C117.487 10.76 115.654 14.445 114.334 19.395C113.381 22.9517 112.427 25.83 111.474 28.03C110.557 30.1934 109.586 31.8984 108.559 33.145C107.569 34.355 106.506 35.18 105.369 35.62C104.232 36.06 102.949 36.3167 101.519 36.39C103.389 37.7834 105.571 38.9384 108.064 39.855C110.557 40.735 113.179 41.175 115.929 41.175Z" fill="white"/>
<path d="M147.171 38.535C147.245 38.4617 147.336 38.4617 147.446 38.535C147.556 38.6084 147.593 38.7184 147.556 38.865C146.896 39.8184 146.163 40.5884 145.356 41.175C144.549 41.725 143.78 42 143.046 42C142.203 42 141.653 41.4134 141.396 40.24C141.176 39.03 141.305 37.6 141.781 35.95C140.791 37.5267 139.71 38.8834 138.536 40.02C137.4 41.12 136.19 41.78 134.906 42C134.026 42 133.348 41.5967 132.871 40.79C132.395 39.9834 132.156 39.0484 132.156 37.985C132.156 36.775 132.45 35.5834 133.036 34.41C133.623 33.2 134.393 32.1184 135.346 31.165C136.336 30.2117 137.418 29.4417 138.591 28.855C139.801 28.2317 141.011 27.92 142.221 27.92C143.505 27.92 144.513 28.2317 145.246 28.855C145.613 28.5984 146.071 28.3784 146.621 28.195C147.208 28.0117 147.721 27.92 148.161 27.92C148.308 27.92 148.381 28.0117 148.381 28.195C147.538 29.2217 146.805 30.3584 146.181 31.605C145.594 32.815 145.136 33.9884 144.806 35.125C144.476 36.225 144.275 37.215 144.201 38.095C144.128 38.975 144.201 39.58 144.421 39.91C144.605 40.13 144.916 40.2034 145.356 40.13C145.796 40.02 146.401 39.4884 147.171 38.535ZM136.611 39.965C137.051 39.965 137.583 39.69 138.206 39.14C138.866 38.59 139.544 37.8567 140.241 36.94C140.938 36.0234 141.616 34.9967 142.276 33.86C142.973 32.7234 143.578 31.5684 144.091 30.395C143.945 29.9184 143.596 29.5334 143.046 29.24C142.533 28.9467 141.928 28.8 141.231 28.8C140.388 28.8 139.6 29.02 138.866 29.46C138.133 29.8634 137.491 30.45 136.941 31.22C136.428 31.9534 136.006 32.8517 135.676 33.915C135.383 34.9417 135.236 36.0784 135.236 37.325C135.236 38.1317 135.365 38.7734 135.621 39.25C135.915 39.7267 136.245 39.965 136.611 39.965Z" fill="white"/>
<path d="M158.124 34.74C158.528 36.6834 159.041 38.1867 159.664 39.25C160.324 40.2767 161.113 40.79 162.029 40.79C162.433 40.79 162.799 40.6984 163.129 40.515C163.459 40.3317 163.826 39.9834 164.229 39.47C164.339 39.4334 164.431 39.47 164.504 39.58C164.614 39.6534 164.651 39.745 164.614 39.855C163.478 41.285 162.048 42 160.324 42C158.931 42 157.868 41.395 157.134 40.185C156.438 38.9384 155.869 37.0867 155.429 34.63C155.319 34.3367 155.393 34.1534 155.649 34.08C156.309 34.2267 156.969 34.245 157.629 34.135C158.289 34.025 158.876 33.8234 159.389 33.53C159.939 33.2367 160.361 32.8517 160.654 32.375C160.984 31.8984 161.149 31.3667 161.149 30.78C161.149 29.8634 160.691 29.405 159.774 29.405C158.491 29.405 157.299 30.0284 156.199 31.275C155.099 32.485 154.293 34.2817 153.779 36.665C153.596 37.2884 153.431 37.9484 153.284 38.645C153.138 39.305 153.009 39.8917 152.899 40.405C152.826 40.6984 152.753 40.9184 152.679 41.065C152.606 41.175 152.441 41.3034 152.184 41.45C151.891 41.5967 151.524 41.725 151.084 41.835C150.644 41.945 150.314 42 150.094 42C149.838 42 149.728 41.8167 149.764 41.45C150.534 37.38 151.506 33.5484 152.679 29.955C153.889 26.325 155.228 22.9884 156.694 19.945C158.161 16.9017 159.719 14.17 161.369 11.75C163.056 9.33004 164.743 7.29504 166.429 5.64505C168.116 3.95838 169.784 2.67505 171.434 1.79505C173.084 0.878378 174.643 0.420044 176.109 0.420044C177.026 0.420044 177.741 0.603377 178.254 0.970043C178.804 1.33671 179.171 1.81338 179.354 2.40004C179.538 2.95004 179.556 3.55504 179.409 4.21504C179.299 4.87504 179.043 5.48004 178.639 6.03004C178.383 6.28671 178.218 6.23171 178.144 5.86505C178.328 5.13171 178.144 4.41671 177.594 3.72004C177.044 3.02338 176.128 2.67504 174.844 2.67504C172.864 2.67504 170.939 3.26171 169.069 4.43504C167.236 5.57171 165.458 7.36838 163.734 9.82504C162.011 12.245 160.361 15.3617 158.784 19.175C157.244 22.9517 155.796 27.48 154.439 32.76C155.136 31.4034 156.053 30.2667 157.189 29.35C158.363 28.3967 159.738 27.92 161.314 27.92C162.378 27.92 163.074 28.195 163.404 28.745C163.771 29.2584 163.954 29.7717 163.954 30.285C163.954 31.4584 163.404 32.4667 162.304 33.31C161.204 34.1167 159.811 34.5934 158.124 34.74Z" fill="white"/>
<path d="M177.485 30.67C177.485 32.76 174.717 34.19 169.18 34.96C169.144 35.3267 169.107 35.6934 169.07 36.06C169.07 36.4267 169.07 36.8117 169.07 37.215C169.07 38.1684 169.29 38.9017 169.73 39.415C170.17 39.9284 170.867 40.185 171.82 40.185C172.517 40.185 173.232 39.9834 173.965 39.58C174.699 39.1767 175.285 38.6634 175.725 38.04C175.872 37.9667 175.982 38.0034 176.055 38.15C176.129 38.26 176.147 38.3884 176.11 38.535C175.377 39.4884 174.442 40.3134 173.305 41.01C172.205 41.67 171.014 42 169.73 42C168.447 42 167.512 41.6884 166.925 41.065C166.375 40.405 166.1 39.4884 166.1 38.315C166.1 37.1784 166.339 36.005 166.815 34.795C167.292 33.5484 167.897 32.4117 168.63 31.385C169.4 30.3584 170.262 29.5334 171.215 28.91C172.205 28.25 173.195 27.92 174.185 27.92C175.175 27.92 175.964 28.2134 176.55 28.8C177.174 29.35 177.485 29.9734 177.485 30.67ZM172.7 29.35C171.857 29.35 171.124 29.7534 170.5 30.56C169.914 31.33 169.51 32.54 169.29 34.19C171.05 34.0067 172.352 33.6767 173.195 33.2C174.039 32.6867 174.46 32.0634 174.46 31.33C174.46 30.78 174.295 30.3217 173.965 29.955C173.635 29.5517 173.214 29.35 172.7 29.35Z" fill="white"/>
<path d="M184.982 29.515C184.982 30.065 184.927 30.6884 184.817 31.385C184.707 32.0817 184.56 32.7967 184.377 33.53C185.11 31.77 185.917 30.395 186.797 29.405C187.677 28.415 188.63 27.92 189.657 27.92C190.207 27.92 190.629 28.0484 190.922 28.305C191.215 28.5617 191.362 28.8917 191.362 29.295C191.362 29.6617 191.215 30.1384 190.922 30.725C190.665 31.3117 190.445 31.715 190.262 31.935C190.189 31.9717 190.115 31.9717 190.042 31.935C189.969 31.8617 189.932 31.7884 189.932 31.715C189.932 31.4584 189.822 31.2384 189.602 31.055C189.419 30.8717 189.125 30.78 188.722 30.78C187.439 30.78 186.265 31.66 185.202 33.42C184.175 35.1434 183.222 37.6367 182.342 40.9C182.305 41.0834 182.177 41.2484 181.957 41.395C181.737 41.505 181.48 41.615 181.187 41.725C180.93 41.7984 180.655 41.8717 180.362 41.945C180.069 41.9817 179.812 42 179.592 42C179.189 42 179.079 41.78 179.262 41.34C179.592 40.57 179.904 39.745 180.197 38.865C180.527 37.9484 180.82 37.0317 181.077 36.115C181.334 35.1984 181.554 34.3184 181.737 33.475C181.92 32.595 182.067 31.7884 182.177 31.055C182.25 30.505 182.269 30.0834 182.232 29.79C182.232 29.4967 182.085 29.35 181.792 29.35C181.425 29.35 181.04 29.515 180.637 29.845C180.27 30.1384 179.922 30.5234 179.592 31C179.445 31.11 179.299 31.1284 179.152 31.055C179.042 30.945 179.024 30.8167 179.097 30.67C179.317 30.3767 179.574 30.0834 179.867 29.79C180.197 29.46 180.545 29.1667 180.912 28.91C181.315 28.6167 181.719 28.3784 182.122 28.195C182.562 28.0117 183.002 27.92 183.442 27.92C184.029 27.92 184.432 28.0667 184.652 28.36C184.872 28.6167 184.982 29.0017 184.982 29.515Z" fill="white"/>
<path d="M203.292 29.515C203.439 29.1484 203.842 28.8 204.502 28.47C205.162 28.1034 205.749 27.92 206.262 27.92C206.592 27.92 206.721 28.0484 206.647 28.305C205.841 30.5784 205.034 32.7967 204.227 34.96C203.457 37.0867 202.651 39.2867 201.807 41.56C199.974 46.29 197.682 49.7734 194.932 52.01C192.219 54.2467 189.322 55.365 186.242 55.365C184.116 55.365 182.447 54.87 181.237 53.88C180.027 52.89 179.422 51.6984 179.422 50.305C179.422 49.4984 179.697 48.71 180.247 47.94C180.797 47.17 181.549 46.62 182.502 46.29C182.649 46.2534 182.759 46.29 182.832 46.4C182.906 46.51 182.906 46.62 182.832 46.73C182.246 47.3534 181.952 48.1417 181.952 49.095C181.952 50.635 182.429 51.8817 183.382 52.835C184.336 53.7884 185.711 54.265 187.507 54.265C188.791 54.265 189.964 54.0634 191.027 53.66C192.091 53.2567 193.081 52.5417 193.997 51.515C194.951 50.4884 195.867 49.1134 196.747 47.39C197.627 45.6667 198.526 43.5034 199.442 40.9C199.882 39.69 200.267 38.6084 200.597 37.655C200.964 36.7017 201.331 35.6567 201.697 34.52C201.001 35.62 200.286 36.6284 199.552 37.545C198.819 38.4617 198.067 39.25 197.297 39.91C196.564 40.57 195.849 41.0834 195.152 41.45C194.456 41.8167 193.814 42 193.227 42C192.494 42 191.962 41.78 191.632 41.34C191.302 40.9 191.137 40.295 191.137 39.525C191.137 38.2417 191.394 36.775 191.907 35.125C192.457 33.4384 193.191 31.825 194.107 30.285C193.704 30.5417 193.337 30.78 193.007 31C192.677 31.22 192.366 31.4767 192.072 31.77C191.962 31.8434 191.852 31.825 191.742 31.715C191.669 31.5684 191.669 31.44 191.742 31.33C191.999 31.0734 192.347 30.7984 192.787 30.505C193.227 30.175 193.704 29.8634 194.217 29.57C194.731 29.2767 195.244 28.9834 195.757 28.69C196.307 28.3967 196.839 28.14 197.352 27.92C197.719 27.92 197.866 28.085 197.792 28.415C197.206 29.1484 196.674 29.9734 196.197 30.89C195.757 31.77 195.372 32.6684 195.042 33.585C194.712 34.465 194.456 35.345 194.272 36.225C194.126 37.105 194.052 37.8934 194.052 38.59C194.052 39.6167 194.382 40.13 195.042 40.13C195.629 40.13 196.326 39.7634 197.132 39.03C197.939 38.2967 198.727 37.3984 199.497 36.335C200.304 35.235 201.037 34.08 201.697 32.87C202.394 31.6234 202.926 30.505 203.292 29.515Z" fill="white"/>
</svg>
